:SAMPLES-PER-SECOND 30
:FULLY-SPECIFIED
:DEGREES
269
root  -0.378825 34.2625 -41.7519 -171.699 15.1831 -177.788
RightUpLeg  -18.5247 -11.1427 2.86567
RightLeg  20.4532 -4.44927 -1.34088
RightFoot  1.15964 0.00457453 0.067777
RightToes  -21.8004 -0.0917208 -0.191138
Spine  0.887687 0.441549 1.39622
Spine1  1.75948 1.05789 3.20661
HEad  -62.5142 -1.29883 10.4696
LeftShoulder1  -1.94126e-019 -3.10601e-018 -2.51263e-017
LeftArm  -11.7138 16.0089 -81.0008
LeftForeArm  27.7437 -23.0735 -3.83038
LeftHand  -0.444347 -1.45379 7.70127
RightShoulder  -4.96962e-017 0 -2.36833e-017
RightArm  -29.017 -17.987 68.9676
RightForeArm  48.8592 18.3304 1.53618
RightHand  -0.324834 -2.00938 -10.9435
LeftUpLeg  -32.7066 18.8863 -0.525816
LeftLeg  30.9108 21.7994 10.8139
LeftFoot  4.06607 -0.0642129 1.97036
LeftToes  -22.1631 1.31378e-006 1.14341e-007
270
root  -0.554393 34.3729 -40.8815 -172.024 15.3204 -177.392
RightUpLeg  -17.73 -11.494 3.53295
RightLeg  16.7513 -3.94715 -0.915537
RightFoot  4.00816 0.024495 -0.149605
RightToes  -22.7559 -0.0973485 -0.198603
Spine  0.659417 0.229582 1.60608
Spine1  1.30276 0.576871 3.62954
HEad  -60.4981 -3.11331 10.235
LeftShoulder1  -1.94126e-019 -3.10601e-018 -2.51263e-017
LeftArm  -9.98759 15.9355 -80.7154
LeftForeArm  26.7 -26.9804 -4.42891
LeftHand  -0.428715 -1.47848 7.41094
RightShoulder  -4.96962e-017 0 -2.36833e-017
RightArm  -29.2447 -19.6545 68.0671
RightForeArm  49.2873 16.9594 1.2799
RightHand  -0.315779 -2.00005 -10.6012
LeftUpLeg  -29.75 19.0265 0.651925
LeftLeg  36.2512 22.5236 13.7445
LeftFoot  1.34992 -0.00736405 0.786699
LeftToes  -17.4667 1.31378e-006 1.14341e-007
271
root  -0.745188 34.328 -39.9848 -172.104 16.0992 -176.784
RightUpLeg  -18.1306 -12.1867 4.50787
RightLeg  14.8412 -2.33604 -0.460391
RightFoot  6.06006 0.0368551 -0.14983
RightToes  -24.6777 -0.10904 -0.213327
Spine  0.375773 0.0303436 1.81419
Spine1  0.736157 0.122105 4.0486
HEad  -58.3113 -4.30737 10.0406
LeftShoulder1  -1.94126e-019 -3.10601e-018 -2.51263e-017
LeftArm  -8.24464 16.0255 -79.9089
LeftForeArm  26.1674 -31.1137 -5.32459
LeftHand  -0.439845 -1.65926 7.41829
RightShoulder  -4.96962e-017 0 -2.36833e-017
RightArm  -29.3576 -20.8834 67.2559
RightForeArm  50.6821 15.6631 1.19574
RightHand  -0.318776 -1.92497 -10.481
LeftUpLeg  -26.517 19.157 2.27734
LeftLeg  40.8777 20.8881 15.1351
LeftFoot  -1.30547 -0.00780165 -0.523193
LeftToes  -15.4138 1.31378e-006 1.14341e-007
272
root  -0.94109 34.1638 -39.0175 -172.015 17.2738 -175.769
RightUpLeg  -19.3673 -12.4868 5.97786
RightLeg  14.2563 -0.659178 -0.122799
RightFoot  7.60837 0.0372434 -0.0207002
RightToes  -26.2167 -0.118755 -0.22483
Spine  0.165732 -0.239522 2.08443
Spine1  0.31501 -0.464113 4.57152
HEad  -56.4749 -5.23796 10.1699
LeftShoulder1  -1.94126e-019 -3.10601e-018 -2.51263e-017
LeftArm  -7.30128 15.7464 -78.8907
LeftForeArm  26.4564 -34.6822 -6.20578
LeftHand  -0.42273 -1.60636 7.18592
RightShoulder  -4.96962e-017 0 -2.36833e-017
RightArm  -30.0004 -21.54 66.7303
RightForeArm  52.2958 14.6912 1.235
RightHand  -0.31152 -1.94858 -10.7009
LeftUpLeg  -22.8735 19.2471 4.4135
LeftLeg  43.7956 16.8146 13.6898
LeftFoot  -2.9591 -0.0321833 -1.0844
LeftToes  -16.8153 1.31378e-006 1.14341e-007
273
root  -1.18368 33.9334 -37.9673 -171.753 18.8625 -174.714
RightUpLeg  -21.3509 -12.3615 7.57454
RightLeg  14.5767 0.966483 0.186093
RightFoot  9.06641 0.0270873 0.190185
RightToes  -27.4639 -0.126852 -0.233959
Spine  0.0413761 -0.490725 2.28557
Spine1  0.0641577 -1.00391 4.94821
HEad  -55.4367 -6.21142 10.6979
LeftShoulder1  -1.94126e-019 -3.10601e-018 -2.51263e-017
LeftArm  -7.11389 14.9305 -77.9069
LeftForeArm  26.6376 -37.0897 -6.84831
LeftHand  -0.424098 -1.28358 7.53127
RightShoulder  -4.96962e-017 0 -2.36833e-017
RightArm  -31.4839 -21.5956 66.6584
RightForeArm  53.2202 13.9104 1.30913
RightHand  -0.301424 -2.20518 -11.0183
LeftUpLeg  -18.7943 18.8361 6.38615
LeftLeg  44.8204 12.8239 10.9654
LeftFoot  -3.32966 -0.031881 -0.935299
LeftToes  -22.5404 1.31378e-006 1.14341e-007
274
root  -1.49694 33.6724 -36.811 -171.366 20.3193 -173.689
RightUpLeg  -23.5813 -11.6776 9.1155
RightLeg  14.8561 1.85071 0.365514
RightFoot  10.8478 0.0152104 0.367502
RightToes  -28.3714 -0.132869 -0.240489
Spine  0.00471389 -0.841616 2.41353
Spine1  -0.0124432 -1.72528 5.18327
HEad  -54.935 -7.55517 11.2958
LeftShoulder1  -1.94126e-019 -3.10601e-018 -2.51263e-017
LeftArm  -7.59434 13.4805 -77.0562
LeftForeArm  26.6503 -37.9791 -7.10154
LeftHand  -0.436323 -1.08699 7.96329
RightShoulder  -4.96962e-017 0 -2.36833e-017
RightArm  -33.4544 -21.1047 67.0397
RightForeArm  53.8726 13.2809 1.37575
RightHand  -0.29589 -2.40946 -11.2269
LeftUpLeg  -14.5946 16.806 7.78514
LeftLeg  43.5653 10.1072 8.33564
LeftFoot  -5.7407 -0.0716368 -1.26714
LeftToes  -36.4879 1.31378e-006 1.14341e-007
275
root  -1.9339 33.4345 -35.5658 -171.247 21.5694 -173.494
RightUpLeg  -25.793 -11.5422 9.93467
RightLeg  14.6522 2.93613 0.568983
RightFoot  12.9509 -0.0174305 0.675388
RightToes  -30.1992 -0.145295 -0.253348
Spine  0.120579 -1.25932 2.22734
Spine1  0.208779 -2.56452 4.82847
HEad  -54.7921 -9.18997 11.6572
LeftShoulder1  -1.94126e-019 -3.10601e-018 -2.51263e-017
LeftArm  -8.18721 11.1272 -76.2462
LeftForeArm  26.4533 -36.8619 -6.79669
LeftHand  -0.441103 -0.866168 8.31484
RightShoulder  -4.96962e-017 0 -2.36833e-017
RightArm  -35.7593 -20.2018 68.0339
RightForeArm  55.0382 12.8502 1.4127
RightHand  -0.301663 -2.32921 -11.1625
LeftUpLeg  -10.8562 11.9319 7.65095
LeftLeg  38.8464 7.06082 4.94317
LeftFoot  -12.2855 -0.208379 -1.77446
LeftToes  -30.4129 1.31378e-006 1.14341e-007
276
root  -2.49785 33.2663 -34.2406 -171.751 22.5701 -174.77
RightUpLeg  -27.8269 -12.2969 9.46631
RightLeg  13.791 4.63343 0.825658
RightFoot  15.3499 -0.0995125 1.25075
RightToes  -34.6068 -0.176897 -0.282676
Spine  0.449336 -1.74726 1.39662
Spine1  0.853518 -3.53525 3.20607
HEad  -55.1281 -11.0501 12.6314
LeftShoulder1  -1.94126e-019 -3.10601e-018 -2.51263e-017
LeftArm  -8.73408 7.88271 -74.9294
LeftForeArm  26.3875 -33.9498 -6.01716
LeftHand  -0.442152 -0.699289 8.54864
RightShoulder  -4.96962e-017 0 -2.36833e-017
RightArm  -36.3193 -19.2509 70.1733
RightForeArm  55.0691 12.9757 1.3983
RightHand  -0.313889 -2.14695 -10.9968
LeftUpLeg  -9.66566 6.58379 5.33475
LeftLeg  33.4287 9.50624 5.38661
LeftFoot  -15.726 -0.423781 -2.90632
LeftToes  -25.8846 1.31378e-006 1.14341e-007
277
root  -3.12144 33.2345 -32.8724 -172.691 23.4682 -177.309
RightUpLeg  -29.5992 -14.4259 8.12612
RightLeg  12.0309 8.00723 1.17273
RightFoot  17.3126 -0.292858 2.4169
RightToes  -44.0559 -0.251667 -0.336868
Spine  0.839769 -2.19572 -0.00064783
Spine1  1.63871 -4.42639 0.47348
HEad  -55.9186 -13.2534 14.1587
LeftShoulder1  -1.94126e-019 -3.10601e-018 -2.51263e-017
LeftArm  -8.76703 4.65958 -72.92
LeftForeArm  26.4554 -30.0661 -5.05087
LeftHand  -0.444552 -0.69684 8.59774
RightShoulder  -4.96962e-017 0 -2.36833e-017
RightArm  -36.3885 -18.5042 73.3874
RightForeArm  55.4841 13.228 1.36444
RightHand  -0.336025 -1.80211 -10.6983
LeftUpLeg  -12.3805 4.21249 1.61355
LeftLeg  34.0479 13.6252 7.85324
LeftFoot  -15.5142 -0.594535 -4.20089
LeftToes  -16.9235 1.31378e-006 1.14341e-007
278
root  -3.56147 33.3016 -31.4929 -172.043 24.6025 -177.812
RightUpLeg  -31.1252 -17.2752 9.51603
RightLeg  8.84225 16.8586 1.50612
RightFoot  15.9552 -0.60371 4.74838
RightToes  -54.9403 -0.347427 -0.383093
Spine  0.800604 -2.15865 -0.694111
Spine1  1.58485 -4.33517 -0.847961
HEad  -55.9122 -16.3994 14.5399
LeftShoulder1  -1.94126e-019 -3.10601e-018 -2.51263e-017
LeftArm  -7.62087 2.70079 -71.5387
LeftForeArm  26.6424 -27.6545 -4.49781
LeftHand  -0.442655 -0.84342 8.37223
RightShoulder  -4.96962e-017 0 -2.36833e-017
RightArm  -35.1631 -18.7511 75.616
RightForeArm  57.0812 13.1311 1.36112
RightHand  -0.387489 -0.834865 -9.83709
LeftUpLeg  -16.8882 6.01183 1.22451
LeftLeg  36.5675 12.5609 7.99859
LeftFoot  -13.4215 -0.4209 -3.41447
LeftToes  -16.7964 1.31378e-006 1.14341e-007
279
root  -3.90125 33.4297 -30.1695 -170.888 26.5845 -176.691
RightUpLeg  -31.4566 -15.8774 10.4867
RightLeg  7.27876 20.1623 1.24927
RightFoot  15.4091 -0.692685 5.53947
RightToes  -53.7578 -0.336619 -0.378963
Spine  0.830175 -1.53477 -0.662471
Spine1  1.64473 -3.07199 -0.783529
HEad  -55.9525 -19.294 13.324
LeftShoulder1  -1.94126e-019 -3.10601e-018 -2.51263e-017
LeftArm  -8.04602 2.01289 -71.6208
LeftForeArm  28.9456 -27.0573 -4.32176
LeftHand  -0.429622 -1.23428 7.68033
RightShoulder  -4.96962e-017 0 -2.36833e-017
RightArm  -31.0578 -19.0899 75.8768
RightForeArm  58.761 13.4845 1.29945
RightHand  -0.423294 1.15325 -7.64033
LeftUpLeg  -19.6722 12.1014 2.37354
LeftLeg  36.1963 9.14604 5.7798
LeftFoot  -11.7468 -0.234232 -2.11512
LeftToes  -19.0537 1.31378e-006 1.14341e-007
280
root  -4.26875 33.6427 -28.9786 -170.814 28.8933 -176.638
RightUpLeg  -30.6734 -12.1412 8.31853
RightLeg  9.10803 12.3196 1.16449
RightFoot  15.2816 -0.380052 3.3013
RightToes  -48.2104 -0.287165 -0.356653
Spine  0.992149 -1.05636 -0.708992
Spine1  1.94884 -2.10156 -0.893884
HEad  -56.6107 -21.1295 12.1426
LeftShoulder1  -1.94126e-019 -3.10601e-018 -2.51263e-017
LeftArm  -10.3169 3.25453 -72.2313
LeftForeArm  29.8732 -26.8358 -4.18884
LeftHand  -0.448308 -1.07609 8.19138
RightShoulder  -4.96962e-017 0 -2.36833e-017
RightArm  -28.8013 -17.7514 75.1173
RightForeArm  61.6848 12.3425 1.42912
RightHand  -0.422152 2.69625 -6.27352
LeftUpLeg  -20.5432 14.6974 2.22949
LeftLeg  34.245 8.85108 5.18655
LeftFoot  -9.18598 -0.137153 -1.5456
LeftToes  -19.6017 1.31378e-006 1.14341e-007
281
root  -4.6053 33.9141 -27.8785 -171.101 30.2328 -177.086
RightUpLeg  -29.6352 -12.055 6.55389
RightLeg  12.8288 2.31711 0.373513
RightFoot  12.5772 -0.0050749 0.570068
RightToes  -40.8706 -0.225475 -0.319987
Spine  1.03154 -1.10899 -0.790167
Spine1  2.00723 -2.17293 -1.09306
HEad  -57.119 -22.9255 11.3075
LeftShoulder1  -1.94126e-019 -3.10601e-018 -2.51263e-017
LeftArm  -13.0407 6.5777 -72.713
LeftForeArm  28.7024 -27.6869 -4.38224
LeftHand  -0.463401 -0.653408 9.01866
RightShoulder  -4.96962e-017 0 -2.36833e-017
RightArm  -31.1625 -15.6207 74.5653
RightForeArm  65.2691 10.2039 1.53526
RightHand  -0.41843 2.12977 -6.64561
LeftUpLeg  -20.7055 12.9173 1.77415
LeftLeg  31.4771 11.7385 6.1165
LeftFoot  -6.01712 -0.0769351 -1.3022
LeftToes  -19.0154 1.31378e-006 1.14341e-007
282
root  -4.84986 34.1793 -26.8193 -171.156 30.9174 -177.148
RightUpLeg  -28.3043 -14.6518 5.71624
RightLeg  17.5281 -4.88675 -1.20293
RightFoot  8.7306 0.0924691 -0.648933
RightToes  -33.4663 -0.168504 -0.275321
Spine  0.947442 -1.14165 -0.746304
Spine1  1.82508 -2.19924 -1.03692
HEad  -58.0617 -26.0356 11.4441
LeftShoulder1  -1.94126e-019 -3.10601e-018 -2.51263e-017
LeftArm  -14.1017 10.4587 -73.3173
LeftForeArm  26.3784 -28.6603 -4.72447
LeftHand  -0.472393 -0.363355 9.62989
RightShoulder  -4.96962e-017 0 -2.36833e-017
RightArm  -35.0937 -14.4388 74.0836
RightForeArm  66.214 9.15147 1.48318
RightHand  -0.398373 0.345966 -8.13543
LeftUpLeg  -20.6671 10.8184 2.0006
LeftLeg  28.4099 14.3743 6.51832
LeftFoot  -2.75995 -0.0199821 -0.667919
LeftToes  -19.1582 1.31378e-006 1.14341e-007
283
root  -4.99592 34.3605 -25.7967 -171.141 31.5832 -177.028
RightUpLeg  -26.0679 -16.0674 4.22184
RightLeg  21.8964 -8.97558 -2.93949
RightFoot  6.40759 0.0831546 -0.901961
RightToes  -29.9465 -0.143552 -0.251594
Spine  0.7653 -0.945394 -0.644266
Spine1  1.451 -1.77431 -0.839442
HEad  -59.2744 -30.8419 11.9503
LeftShoulder1  -1.94126e-019 -3.10601e-018 -2.51263e-017
LeftArm  -13.6032 14.1774 -74.0115
LeftForeArm  24.7848 -28.5359 -4.78212
LeftHand  -0.460618 -0.37167 9.37897
RightShoulder  -4.96962e-017 0 -2.36833e-017
RightArm  -36.9211 -14.3864 73.3404
RightForeArm  64.1587 9.70419 1.51982
RightHand  -0.381136 -0.547363 -9.12852
LeftUpLeg  -20.5793 10.2516 2.58426
LeftLeg  25.5167 15.4575 6.09186
LeftFoot  -0.243702 -0.000255891 0.0411518
LeftToes  -20.7214 1.31378e-006 1.14341e-007
